<?xml version="1.0" encoding="UTF-8"?>
<!-- Generated by Pixelmator Pro 2.4.3 -->
<svg width="1337" height="430" viewBox="0 0 1337 430" xmlns="http://www.w3.org/2000/svg" xmlns:xlink="http://www.w3.org/1999/xlink">
    <g id="11">
        <g id="Group">
            <path id="Path" fill="none" stroke="none" d="M 1105 424 L 1105 46"/>
            <g id="g1">
                <path id="path1" fill="none" stroke="#000000" stroke-width="3" stroke-linecap="round" stroke-linejoin="round" d="M 1105 413.25 L 1105 56.75"/>
                <g id="g2">
                    <path id="path2" fill="#000000" stroke="none" d="M 1111.670044 408.200012 L 1105 411.030029 L 1098.329956 408.200012 L 1105 424 Z"/>
                </g>
                <g id="g3">
                    <path id="path3" fill="#000000" stroke="none" d="M 1111.670044 61.799988 L 1105 58.969971 L 1098.329956 61.799988 L 1105 46 Z"/>
                </g>
            </g>
        </g>
        <path id="path4" fill="#ffffff" stroke="#000000" stroke-width="3" stroke-linecap="round" stroke-linejoin="round" d="M 183.5 369.5 L 365.5 369.5 L 365.5 424.5 L 1.5 424.5 L 1.5 369.5 L 183.5 369.5"/>
        <path id="path5" fill="none" stroke="#000000" stroke-width="3" stroke-linecap="round" stroke-linejoin="round" d="M 301.669983 91.5 L 301.669983 369"/>
        <path id="path6" fill="none" stroke="#000000" stroke-width="3" stroke-linecap="round" stroke-linejoin="round" d="M 60.329987 370 L 60.329987 91.5"/>
        <path id="path7" fill="#ffffff" stroke="#000000" stroke-width="3" stroke-linecap="round" stroke-linejoin="round" d="M 16.5 200.5 L 131.5 200.5 L 131.5 271.5 L 16.5 271.5 Z"/>
        <path id="path8" fill="#ffffff" stroke="#000000" stroke-width="3" stroke-linecap="round" stroke-linejoin="round" d="M 234.5 200.5 L 349.5 200.5 L 349.5 271.5 L 234.5 271.5 Z"/>
        <path id="path9" fill="none" stroke="#000000" stroke-width="3" stroke-linecap="round" stroke-linejoin="round" d="M 301.669983 200.5 L 301.669983 271.5"/>
        <path id="path10" fill="none" stroke="#000000" stroke-width="3" stroke-linecap="round" stroke-linejoin="round" d="M 60.329987 200.5 L 60.329987 271.5"/>
        <path id="path11" fill="#ffffff" stroke="#000000" stroke-width="3" stroke-linecap="round" stroke-linejoin="round" d="M 148.5 200.5 L 218.5 200.5 L 218.5 270.5 L 148.5 270.5 Z"/>
        <path id="svg38" fill="#ffffff" stroke="#000000" stroke-linecap="round" stroke-linejoin="round" d="M 183.600006 227.140015 C 179.019989 227.140015 175.320007 230.72998 175.320007 235.150024 C 175.320007 239.570007 179.029999 243.159973 183.600006 243.159973 C 188.170013 243.159973 191.880005 239.570007 191.880005 235.150024 C 191.869995 230.72998 188.170013 227.140015 183.600006 227.140015 Z M 183.600006 241.130005 C 180.190002 241.119995 177.429993 238.450012 177.420013 235.150024 C 177.429993 231.849976 180.190002 229.179993 183.600006 229.169983 C 187.01001 229.179993 189.769989 231.849976 189.769989 235.150024 C 189.76001 238.460022 187.01001 241.130005 183.600006 241.130005 Z M 183.600006 226.609985 C 184.179993 226.609985 184.649994 226.150024 184.649994 225.590027 L 184.649994 220.650024 C 184.649994 220.090027 184.179993 219.630005 183.600006 219.630005 C 183.019989 219.630005 182.549988 220.090027 182.549988 220.650024 L 182.549988 225.590027 C 182.540009 226.150024 183.01001 226.609985 183.600006 226.609985 Z M 186.970001 227.26001 C 187.100006 227.309998 187.23999 227.340027 187.369995 227.340027 C 187.779999 227.340027 188.170013 227.099976 188.339996 226.710022 L 190.290009 222.150024 C 190.51001 221.630005 190.26001 221.039978 189.720001 220.820007 C 189.179993 220.609985 188.570007 220.849976 188.339996 221.369995 L 186.390015 225.929993 C 186.179993 226.450012 186.440002 227.039978 186.970001 227.26001 Z M 189.839996 229.109985 C 190.049988 229.309998 190.309998 229.409973 190.579987 229.409973 C 190.850006 229.409973 191.119995 229.309998 191.320007 229.109985 L 194.929993 225.619995 C 195.339996 225.219971 195.339996 224.580017 194.929993 224.179993 C 194.519989 223.780029 193.850006 223.780029 193.440002 224.179993 L 189.829987 227.669983 C 189.429993 228.070007 189.429993 228.710022 189.839996 229.109985 Z M 191.76001 231.880005 C 191.929993 232.27002 192.320007 232.51001 192.730011 232.51001 C 192.859985 232.51001 193 232.47998 193.130005 232.429993 L 197.839996 230.539978 C 198.380005 230.330017 198.630005 229.72998 198.410004 229.210022 C 198.190002 228.690002 197.570007 228.440002 197.040009 228.659973 L 192.329987 230.549988 C 191.790009 230.77002 191.540009 231.359985 191.76001 231.880005 Z M 198.579987 234.130005 L 193.480011 234.130005 C 192.899994 234.130005 192.429993 234.590027 192.429993 235.150024 C 192.429993 235.710022 192.899994 236.169983 193.480011 236.169983 L 198.579987 236.169983 C 199.160004 236.169983 199.630005 235.710022 199.630005 235.150024 C 199.630005 234.590027 199.160004 234.130005 198.579987 234.130005 Z M 197.850006 239.76001 L 193.140015 237.869995 C 192.600006 237.650024 191.98999 237.900024 191.769989 238.419983 C 191.549988 238.940002 191.799988 239.539978 192.339996 239.75 L 197.049988 241.640015 C 197.179993 241.690002 197.320007 241.719971 197.450012 241.719971 C 197.859985 241.719971 198.25 241.47998 198.420013 241.090027 C 198.640015 240.570007 198.380005 239.969971 197.850006 239.76001 Z M 191.329987 241.200012 C 190.920013 240.799988 190.25 240.799988 189.839996 241.200012 C 189.429993 241.599976 189.429993 242.23999 189.839996 242.640015 L 193.450012 246.130005 C 193.660004 246.330017 193.920013 246.429993 194.190002 246.429993 C 194.459991 246.429993 194.730011 246.330017 194.929993 246.130005 C 195.339996 245.72998 195.339996 245.090027 194.929993 244.690002 L 191.329987 241.200012 Z M 188.359985 243.599976 C 188.140015 243.080017 187.519989 242.830017 186.98999 243.049988 C 186.450012 243.27002 186.200012 243.859985 186.420013 244.380005 L 188.380005 248.940002 C 188.549988 249.330017 188.940002 249.570007 189.350006 249.570007 C 189.480011 249.570007 189.619995 249.549988 189.75 249.48999 C 190.290009 249.280029 190.540009 248.679993 190.320007 248.159973 L 188.359985 243.599976 Z M 183.609985 243.710022 C 183.029999 243.710022 182.559998 244.169983 182.559998 244.72998 L 182.559998 249.669983 C 182.559998 250.22998 183.029999 250.690002 183.609985 250.690002 C 184.190002 250.690002 184.660004 250.22998 184.660004 249.669983 L 184.660004 244.72998 C 184.660004 244.159973 184.179993 243.710022 183.609985 243.710022 Z M 180.220001 243.059998 C 179.679993 242.849976 179.070007 243.090027 178.850006 243.609985 L 176.899994 248.169983 C 176.679993 248.690002 176.929993 249.289978 177.470001 249.5 C 177.600006 249.549988 177.73999 249.580017 177.869995 249.580017 C 178.279999 249.580017 178.670013 249.340027 178.839996 248.950012 L 180.790009 244.380005 C 181.019989 243.869995 180.76001 243.27002 180.220001 243.059998 Z M 177.359985 241.210022 C 176.950012 240.809998 176.279999 240.809998 175.869995 241.210022 L 172.269989 244.700012 C 171.859985 245.099976 171.859985 245.73999 172.269989 246.140015 C 172.480011 246.340027 172.73999 246.440002 173.01001 246.440002 C 173.279999 246.440002 173.549988 246.340027 173.75 246.140015 L 177.350006 242.640015 C 177.769989 242.25 177.769989 241.609985 177.359985 241.210022 Z M 175.440002 238.440002 C 175.220001 237.919983 174.600006 237.679993 174.070007 237.890015 L 169.359985 239.780029 C 168.820007 240 168.570007 240.590027 168.790009 241.109985 C 168.959991 241.5 169.350006 241.73999 169.76001 241.73999 C 169.890015 241.73999 170.029999 241.719971 170.160004 241.659973 L 174.869995 239.77002 C 175.410004 239.549988 175.660004 238.960022 175.440002 238.440002 Z M 174.76001 235.169983 C 174.76001 234.609985 174.290009 234.150024 173.709991 234.150024 L 168.609985 234.159973 C 168.029999 234.159973 167.559998 234.619995 167.559998 235.179993 C 167.559998 235.73999 168.029999 236.200012 168.609985 236.200012 L 173.709991 236.190002 C 174.290009 236.190002 174.76001 235.72998 174.76001 235.169983 Z M 169.339996 230.570007 L 174.059998 232.450012 C 174.190002 232.5 174.329987 232.530029 174.459991 232.530029 C 174.869995 232.530029 175.269989 232.289978 175.429993 231.900024 C 175.649994 231.380005 175.399994 230.780029 174.859985 230.570007 L 170.140015 228.690002 C 169.600006 228.47998 168.98999 228.719971 168.769989 229.23999 C 168.540009 229.76001 168.799988 230.349976 169.339996 230.570007 Z M 175.850006 229.119995 C 176.059998 229.320007 176.320007 229.419983 176.589996 229.419983 C 176.859985 229.419983 177.130005 229.320007 177.339996 229.119995 C 177.75 228.719971 177.75 228.080017 177.339996 227.679993 L 173.730011 224.190002 C 173.320007 223.789978 172.649994 223.799988 172.23999 224.190002 C 171.829987 224.590027 171.829987 225.22998 172.23999 225.630005 L 175.850006 229.119995 Z M 178.820007 226.719971 C 178.98999 227.109985 179.380005 227.349976 179.790009 227.349976 C 179.920013 227.349976 180.059998 227.320007 180.190002 227.27002 C 180.730011 227.049988 180.980011 226.460022 180.76001 225.940002 L 178.799988 221.380005 C 178.579987 220.859985 177.959991 220.619995 177.420013 220.830017 C 176.880005 221.049988 176.630005 221.640015 176.850006 222.159973 L 178.820007 226.719971 Z"/>
        <path id="path12" fill="none" stroke="#000000" stroke-width="3" stroke-linecap="round" stroke-linejoin="round" d="M 76.369995 271.5 L 61.350006 256.47998"/>
        <path id="path13" fill="none" stroke="#000000" stroke-width="3" stroke-linecap="round" stroke-linejoin="round" d="M 96.769989 271.5 L 61.5 237.5"/>
        <path id="path14" fill="none" stroke="#000000" stroke-width="3" stroke-linecap="round" stroke-linejoin="round" d="M 117.690002 271.5 L 61.290009 215.090027"/>
        <path id="path15" fill="none" stroke="#000000" stroke-width="3" stroke-linecap="round" stroke-linejoin="round" d="M 131.5 263.98999 L 68.440002 200.929993"/>
        <path id="path16" fill="none" stroke="#000000" stroke-width="3" stroke-linecap="round" stroke-linejoin="round" d="M 131.5 241.73999 L 90.089996 200.329956"/>
        <path id="path17" fill="none" stroke="#000000" stroke-width="3" stroke-linecap="round" stroke-linejoin="round" d="M 131.5 223.119995 L 108.790009 200.410034"/>
        <path id="path18" fill="none" stroke="#000000" stroke-width="3" stroke-linecap="round" stroke-linejoin="round" d="M 247.890015 271.390015 L 234.25 257.75"/>
        <path id="path19" fill="none" stroke="#000000" stroke-width="3" stroke-linecap="round" stroke-linejoin="round" d="M 268.290009 271.390015 L 234.320007 238.679993"/>
        <path id="path20" fill="none" stroke="#000000" stroke-width="3" stroke-linecap="round" stroke-linejoin="round" d="M 289.219971 271.390015 L 234.420013 216.580017"/>
        <path id="path21" fill="none" stroke="#000000" stroke-width="3" stroke-linecap="round" stroke-linejoin="round" d="M 301.570007 262.429993 L 239.959991 200.809998"/>
        <path id="path22" fill="none" stroke="#000000" stroke-width="3" stroke-linecap="round" stroke-linejoin="round" d="M 301.700012 240.299988 L 261.609985 200.219971"/>
        <path id="path23" fill="none" stroke="#000000" stroke-width="3" stroke-linecap="round" stroke-linejoin="round" d="M 301.51001 221.48999 L 280.309998 200.299988"/>
        <text id="text1" xml:space="preserve" x="741" y="24" font-family="Helvetica" font-size="30" fill="#000000">ИФП</text>
        <text id="text2" xml:space="preserve" x="104" y="24" font-family="Helvetica" font-size="30" fill="#000000">Источник</text>
        <text id="text3" xml:space="preserve" x="420" y="24" font-family="Helvetica" font-size="30" fill="#000000">Фильтр</text>
        <text id="text4" xml:space="preserve" x="1051" y="24" font-family="Helvetica" font-size="30" fill="#000000">Линза</text>
        <text id="text5" xml:space="preserve" x="1248" y="25" font-family="Helvetica" font-size="30" fill="#000000">Экран</text>
        <path id="path24" fill="none" stroke="#000000" stroke-width="3" stroke-linecap="round" stroke-linejoin="round" d="M 351 235.5 L 1301 235.5"/>
        <path id="path25" fill="#ffffff" stroke="#000000" stroke-width="3" stroke-linecap="round" stroke-linejoin="round" d="M 967 424 L 868.25 424 L 868.25 46 L 905.329956 46 Z"/>
        <path id="path26" fill="#ffffff" stroke="#000000" stroke-width="3" stroke-linecap="round" stroke-linejoin="round" d="M 599 424 L 697.75 424 L 697.75 46 L 660.669983 46 Z"/>
        <path id="path27" fill="#ffffff" stroke="#000000" stroke-width="3" stroke-linecap="round" stroke-linejoin="round" d="M 1285.5 46.5 L 1316.5 46.5 L 1316.5 424.5 L 1285.5 424.5 Z"/>
        <g id="g4">
            <path id="path28" fill="none" stroke="none" d="M 697.75 235.179993 L 868.25 236.200012"/>
            <g id="g5">
                <path id="path29" fill="none" stroke="#000000" stroke-width="2" stroke-linecap="round" stroke-linejoin="round" d="M 714.049988 235.27002 L 851.949951 236.099976"/>
                <g id="g6">
                    <path id="path30" fill="#000000" stroke="none" d="M 717.640015 235.289978 L 722.070007 228.109985 L 721.820007 227.950012 L 710.039978 232.549988 C 705.940002 233.429993 701.840027 234.299988 697.73999 235.179993 C 701.830017 236.099976 705.919983 237.030029 710 237.960022 L 721.719971 242.700012 L 721.969971 242.580017 L 717.640015 235.289978 Z"/>
                </g>
                <g id="g7">
                    <path id="path31" fill="#000000" stroke="none" d="M 848.359985 236.080017 L 844.02002 228.849976 L 844.27002 228.690002 L 855.98999 233.429993 C 860.079956 234.349976 864.170044 235.280029 868.25 236.210022 C 864.150024 237.090027 860.050049 237.960022 855.949951 238.840027 L 844.170044 243.440002 L 843.920044 243.320007 L 848.359985 236.080017 Z"/>
                </g>
            </g>
        </g>
        <g id="g8">
            <path id="path32" fill="none" stroke="none" d="M 1105 236.200012 L 1285.5 236.200012"/>
            <g id="g9">
                <path id="path33" fill="none" stroke="#000000" stroke-width="2" stroke-linecap="round" stroke-linejoin="round" d="M 1121.300049 236.200012 L 1269.199951 236.200012"/>
                <g id="g10">
                    <path id="path34" fill="#000000" stroke="none" d="M 1124.890015 236.200012 L 1129.27002 228.98999 L 1129.02002 228.830017 L 1117.27002 233.5 C 1113.180054 234.400024 1109.079956 235.299988 1104.98999 236.200012 C 1109.079956 237.099976 1113.180054 238 1117.27002 238.900024 L 1129.02002 243.570007 L 1129.27002 243.450012 L 1124.890015 236.200012 Z"/>
                </g>
                <g id="g11">
                    <path id="path35" fill="#000000" stroke="none" d="M 1265.609985 236.200012 L 1261.22998 228.98999 L 1261.47998 228.830017 L 1273.22998 233.5 C 1277.319946 234.400024 1281.420044 235.299988 1285.51001 236.200012 C 1281.420044 237.099976 1277.319946 238 1273.22998 238.900024 L 1261.47998 243.570007 L 1261.22998 243.450012 L 1265.609985 236.200012 Z"/>
                </g>
            </g>
        </g>
        <text id="L" xml:space="preserve" x="776" y="215" font-family="Helvetica" font-size="30" fill="#000000">L</text>
        <text id="f" xml:space="preserve" x="1190" y="218" font-family="Helvetica" font-size="30" fill="#000000">f</text>
        <path id="path36" fill="#ffffff" stroke="#000000" stroke-width="3" stroke-linecap="round" stroke-linejoin="round" d="M 480 46 L 492 46 L 492 424 L 480 424 Z"/>
    </g>
    <g id="21"/>
</svg>
